<?xml version="1.0" encoding="UTF-8" standalone="yes"?>
<svg version="1.1" id="Layer_1" xmlns:x="&amp;ns_extend;" xmlns:i="&amp;ns_ai;" xmlns:graph="&amp;ns_graphs;" xmlns="http://www.w3.org/2000/svg" xmlns:xlink="http://www.w3.org/1999/xlink" x="0px" y="0px" viewBox="0 0 315 81.08" style="enable-background:new 0 0 315 81.08;" xml:space="preserve">
      <style type="text/css">.st0{fill:#BF3240;}	.st1{fill:#1725A5;}</style>
    <metadata>
              <sfw>
                      <slices/>
            <sliceSourceBounds bottomLeftOrigin="true" height="81.08" width="315" x="-57.5" y="-140.54"/>
                  </sfw>
          </metadata>
    <g id="color_index_1" fill="#bf3240">
              <path d="M0,61.85c-0.07-0.11,20.46-20.54,47.16-22.24c12.29-0.78,22.9-5.32,60.02,22.24&#x9;&#x9;c62.43,46.35,96.46-5.63,96.46-5.63c-7.95,6.63-20.25,14.73-36.17,16.61c-43.29,5.12-63.38-41.65-108.78-39.92&#x9;&#x9;C24.57,34.21,0.08,61.98,0,61.85z"/>
          </g>
    <g id="color_index_0" fill="#1725a5">
              <path d="M54.43,31.42c0,0,34.96-35.68,105.6-31c0,0,0.72,33.88,58.75,31c58.03-2.88,50.1-19.82,96.23,12.25&#x9;&#x9;c0,0-23.43-9.73-37.48-7.93c-12.63,1.62-150.29,3.24-150.29,3.24s46.49-2.52,47.21-7.57c0,0-16.58-24.87-21.26-24.51&#x9;&#x9;C153.18,6.91,109.21-2.1,54.43,31.42z"/>
          </g>
  </svg>